<svg xmlns="http://www.w3.org/2000/svg" width="1063" height="1063" viewBox="0 0 1063 1063">
  <metadata><?xpacket begin="﻿" id="W5M0MpCehiHzreSzNTczkc9d"?>
<x:xmpmeta xmlns:x="adobe:ns:meta/" x:xmptk="Adobe XMP Core 5.6-c142 79.160924, 2017/07/13-01:06:39        ">
   <rdf:RDF xmlns:rdf="http://www.w3.org/1999/02/22-rdf-syntax-ns#">
      <rdf:Description rdf:about=""/>
   </rdf:RDF>
</x:xmpmeta>
                                                                                                    
                                                                                                    
                                                                                                    
                                                                                                    
                                                                                                    
                                                                                                    
                                                                                                    
                                                                                                    
                                                                                                    
                                                                                                    
                                                                                                    
                                                                                                    
                                                                                                    
                                                                                                    
                                                                                                    
                                                                                                    
                                                                                                    
                                                                                                    
                                                                                                    
                                                                                                    
                           
<?xpacket end="w"?></metadata>
<defs>
    <style>
      .cls-1 {
        fill-rule: evenodd;
      }
    </style>
  </defs>
  <path id="椭圆_1" data-name="椭圆 1" class="cls-1" d="M531.5,147C695.252,147,828,279.748,828,443.5S695.252,740,531.5,740,235,607.252,235,443.5,367.748,147,531.5,147Zm0-152C616.828-5,686,63.053,686,147S616.828,299,531.5,299,377,230.947,377,147,446.172-5,531.5-5ZM316,603H749a10,10,0,0,1,10,10v445a10,10,0,0,1-10,10H316a10,10,0,0,1-10-10V613A10,10,0,0,1,316,603Zm41-236H697a10,10,0,0,1,10,10V525a10,10,0,0,1-10,10H357a10,10,0,0,1-10-10V377A10,10,0,0,1,357,367ZM475,741H587a10,10,0,0,1,10,10v350a10,10,0,0,1-10,10H475a10,10,0,0,1-10-10V751A10,10,0,0,1,475,741Z"/>
</svg>
