<?xml version="1.0" encoding="utf-8"?>
<!-- Generator: Adobe Illustrator 21.0.0, SVG Export Plug-In . SVG Version: 6.00 Build 0)  -->
<svg version="1.1" id="图层_1" xmlns="http://www.w3.org/2000/svg" xmlns:xlink="http://www.w3.org/1999/xlink" x="0px" y="0px"
	 viewBox="0 0 150 150" style="enable-background:new 0 0 150 150;" xml:space="preserve">
<style type="text/css">
	.st0{fill:#E60012;}
</style>
<path class="st0" d="M119.6,20.7c8.6,10.2,13.7,23.3,13.7,37.6c0,32.2-26.1,58.3-58.3,58.3S16.7,90.5,16.7,58.3
	c0-14.3,5.2-27.4,13.7-37.6C14.8,33.6,4.8,53.1,4.8,75c0,38.8,31.4,70.2,70.2,70.2s70.2-31.4,70.2-70.2
	C145.2,53.1,135.2,33.6,119.6,20.7z"/>
<path class="st0" d="M75,27.3c-13.6,0-24.7,11-24.7,24.7c0,13.6,11,24.7,24.7,24.7s24.7-11,24.7-24.7C99.7,38.4,88.6,27.3,75,27.3z
	 M75,67.3c-9.2,0-16.7-7.5-16.7-16.7C58.3,41.5,65.8,34,75,34s16.7,7.5,16.7,16.7C91.7,59.9,84.2,67.3,75,67.3z"/>
<path class="st0" d="M75,67.3c-13.6,0-24.7,11-24.7,24.7c0,13.6,11,24.7,24.7,24.7s24.7-11,24.7-24.7C99.7,78.4,88.6,67.3,75,67.3z
	 M75,110c-9.2,0-16.7-7.5-16.7-16.7c0-9.2,7.5-16.7,16.7-16.7s16.7,7.5,16.7,16.7C91.7,102.5,84.2,110,75,110z"/>
</svg>
